<svg width="60" height="60" xmlns="http://www.w3.org/2000/svg">
 <title/>

 <g>
  <title>background</title>
  <rect fill="none" id="canvas_background" height="402" width="582" y="-1" x="-1"/>
 </g>
 <g>
  <title>Layer 1</title>
  <path id="svg_1" fill="#b4dbc0" d="m30,60c16.56854,0 30,-13.43146 30,-30c0,-16.56854 -13.43146,-30 -30,-30c-16.56854,0 -30,13.43146 -30,30c0,16.56854 13.43146,30 30,30z"/>
  <path stroke="null" id="svg_2" fill="#67839b" d="m29.999999,33.566037l21.091544,-18.543391l-42.183087,0l21.091544,18.543391zm-5.696842,-2.052741l5.696842,4.743634l5.60759,-4.743634l15.483954,13.46406l-42.183087,0l15.394702,-13.46406zm-16.80081,12.03764l0,-27.101883l15.467137,13.550942l-15.467137,13.550942zm44.995303,0l0,-27.101883l-15.467137,13.550942l15.467137,13.550942z"/>
 </g>
</svg>