<?xml version="1.0" ?><svg data-name="图层 1" id="图层_1" viewBox="0 0 500 500" xmlns="http://www.w3.org/2000/svg"><defs><style>.cls-1{fill:none;}.cls-2{fill:#231815;}</style></defs><title/><path class="cls-1" d="M236.74,258A82.26,82.26,0,0,1,316,227.49a76.19,76.19,0,0,1,10.36,2.59A82.65,82.65,0,0,0,261.4,162c-33.28-6.74-68.23,8.91-85.76,37.86a83,83,0,0,0-4.39,76.63A71.06,71.06,0,0,1,236.74,258Z"/><path class="cls-2" d="M171.25,276.48a83,83,0,0,1,4.39-76.63c17.54-28.95,52.48-44.6,85.76-37.86a82.65,82.65,0,0,1,64.92,68.08,78.24,78.24,0,0,1,15.84,7.19,98,98,0,0,0-63.86-86.09c-37.69-13.82-81.9-1.62-107.27,29.43-25,30.58-29.25,74.26-10,108.75A67.67,67.67,0,0,1,171.25,276.48Z"/><path class="cls-2" d="M253.07,117.39V83.74c0-9.65-15-9.67-15,0v33.65C238.07,127,253.07,127.06,253.07,117.39Zm-7.5-33.65v0Z"/><path class="cls-2" d="M189.61,130.34l-16.83-29.15c-4.83-8.36-17.79-.81-13,7.57l16.83,29.15C181.49,146.26,194.46,138.72,189.61,130.34Zm-6.48,3.79L166.31,105Z"/><path class="cls-2" d="M141.22,173.35l-29.15-16.83c-8.37-4.84-15.94,8.12-7.57,13l29.15,16.83C142,191.13,149.59,178.18,141.22,173.35ZM108.29,163l29.15,16.83Z"/><path class="cls-2" d="M87.06,249.75h33.65c9.65,0,9.67-15,0-15H87.06C77.4,234.75,77.39,249.75,87.06,249.75Zm33.65-7.5h0Z"/><path class="cls-2" d="M112.08,328l29.15-16.83c8.36-4.83.81-17.79-7.57-13L104.51,315C96.15,319.85,103.69,332.82,112.08,328Zm25.36-23.3-29.15,16.83Z"/><path class="cls-2" d="M370.42,249.75h33.65c9.65,0,9.67-15,0-15H370.42C360.77,234.75,360.75,249.75,370.42,249.75Zm0-7.5h0Z"/><path class="cls-2" d="M379.06,156.52l-29.15,16.83c-8.36,4.83-.81,17.79,7.57,13l29.15-16.83C395,164.65,387.44,151.68,379.06,156.52Zm-25.36,23.3L382.84,163Z"/><path class="cls-2" d="M314.47,137.91l16.83-29.15c4.84-8.37-8.12-15.94-13-7.57l-16.83,29.15C296.68,138.71,309.64,146.27,314.47,137.91ZM324.82,105,308,134.12Z"/><path class="cls-2" d="M158.31,325.74a61.94,61.94,0,0,1,7.23-29.11c-1-1.44-1.95-2.9-2.86-4.4-.57-.94-1.12-1.9-1.65-2.86q-.81,1.33-1.57,2.71c-15.16,27.65-9.62,63.37,13.66,84.79a70.91,70.91,0,0,0,47.42,18.62c4.86.05,7.27-3.72,7.24-7.5h-7.24A62.23,62.23,0,0,1,158.31,325.74Z"/><path class="cls-2" d="M241.72,259.3c-1.65-.51-3.31-.94-5-1.32q-1.82,2.31-3.49,4.77Z"/><path class="cls-2" d="M378.77,283.51c-.46-1.45-1-2.87-1.51-4.28-1.23-.35-2.47-.68-3.73-1Z"/><path class="cls-2" d="M220.54,263.5a62.16,62.16,0,0,1,19.18,3,73.75,73.75,0,0,1,87.48-28.16,82.08,82.08,0,0,0-.89-8.28A76.19,76.19,0,0,0,316,227.49,82.26,82.26,0,0,0,236.74,258c1.67.38,3.33.81,5,1.32l-8.47,3.45q1.67-2.46,3.49-4.77a71.06,71.06,0,0,0-65.49,18.51,78.63,78.63,0,0,0,3.61,7A62.05,62.05,0,0,1,220.54,263.5Z"/><path class="cls-2" d="M377.25,279.23c.54,1.41,1,2.84,1.51,4.28l-5.24-5.24c1.26.27,2.5.6,3.73,1a83.68,83.68,0,0,0-35.1-42c.1,1.65.17,3.31.18,5,0,1.3-.05,2.6-.12,3.89a73.86,73.86,0,0,1,29.32,39.37A51.75,51.75,0,0,1,361.19,388H354c0,3.78,2.36,7.56,7.24,7.5A59.9,59.9,0,0,0,420,343.13C423.52,314.37,404.68,287.11,377.25,279.23Z"/><path class="cls-2" d="M328.18,238.75a73.48,73.48,0,0,1,13.39,7,7.44,7.44,0,0,0,.77-3.46C342.4,234,331.35,232.79,328.18,238.75Z"/><path class="cls-2" d="M165.54,296.62a62.36,62.36,0,0,1,9.32-13.13,78.63,78.63,0,0,1-3.61-7A67.67,67.67,0,0,0,161,289.36c.54,1,1.08,1.91,1.65,2.86C163.59,293.72,164.56,295.18,165.54,296.62Z"/><path class="cls-2" d="M327.21,238.37l1,.38c3.17-6,14.22-4.79,14.15,3.5,0-1.67-.08-3.33-.18-5a78.24,78.24,0,0,0-15.84-7.19A82.08,82.08,0,0,1,327.21,238.37Z"/><path class="cls-2" d="M342.22,246.14c.06-1.29.11-2.59.12-3.89a7.44,7.44,0,0,1-.77,3.46Z"/><path class="cls-2" d="M412.94,336.22a51.77,51.77,0,0,0-41.41-50.71,73.86,73.86,0,0,0-29.32-39.37q-.21,4.42-.82,8.77A66.85,66.85,0,0,1,364.3,287.5a7.54,7.54,0,0,0,5.24,5.24c22.53,4.89,38.5,25.75,35.61,49-2.74,22.09-22,38.41-44,38.7-4.78.06-7.2,3.78-7.24,7.5h7.24A51.75,51.75,0,0,0,412.94,336.22Z"/><path class="cls-2" d="M220.54,380.47c-24.5-.27-46.36-16.6-52.84-40.4a54.61,54.61,0,0,1,3-36.61q-2.71-3.29-5.14-6.84a62.23,62.23,0,0,0,55,91.35h7.24C227.75,384.25,225.34,380.52,220.54,380.47Z"/><path class="cls-2" d="M193.3,278.25c13.58-7.83,29.54-9.09,44.43-4.49,3.34,1,6.63-.74,8.47-3.45,14.65-21.54,41.42-33.14,67.15-28.1a66.9,66.9,0,0,1,13.82,4.31c.09-1.42.15-2.84.16-4.27s-.06-2.6-.13-3.88a73.75,73.75,0,0,0-87.48,28.16,62.23,62.23,0,0,0-64.87,17,77.22,77.22,0,0,0,4.29,6.55A54.17,54.17,0,0,1,193.3,278.25Z"/><path class="cls-2" d="M332.63,249.19a67.23,67.23,0,0,1,8.76,5.72q.61-4.34.82-8.77l-.65-.43C339.93,248.94,336,250.1,332.63,249.19Z"/><path class="cls-2" d="M329.75,247.7q1.46.71,2.88,1.48c3.34.91,7.3-.25,8.93-3.48a73.48,73.48,0,0,0-13.39-7,7.48,7.48,0,0,0-.85,3.5A6.94,6.94,0,0,0,329.75,247.7Z"/><path class="cls-2" d="M174.86,283.49a62.36,62.36,0,0,0-9.32,13.13q2.43,3.55,5.14,6.84A55.67,55.67,0,0,1,179.15,290,77.22,77.22,0,0,1,174.86,283.49Z"/><path class="cls-2" d="M328.18,238.75l-1-.38c.07,1.29.12,2.58.13,3.88A7.48,7.48,0,0,1,328.18,238.75Z"/><path class="cls-2" d="M327.33,242.25c0,1.43-.07,2.85-.16,4.27q1.3.57,2.57,1.18A6.94,6.94,0,0,1,327.33,242.25Z"/><path class="cls-2" d="M246.71,388h-7.24c0,3.75,2.41,7.5,7.24,7.5H336c4.83,0,7.24-3.75,7.25-7.5H246.71Z"/><path class="cls-2" d="M336,380.47H246.71c-4.83,0-7.24,3.75-7.24,7.5H343.22C343.22,384.22,340.81,380.47,336,380.47Z"/><path class="cls-2" d="M342.84,352.18H231.45c-9.65,0-9.67,15,0,15H342.84C352.49,367.18,352.51,352.18,342.84,352.18Zm-111.39,7.5h0Z"/><path class="cls-2" d="M364.66,408.76H264.45c-9.65,0-9.67,15,0,15H364.66C374.31,423.76,374.33,408.76,364.66,408.76Zm-100.21,7.5h0Z"/></svg>