<svg width="512" height="512" xmlns="http://www.w3.org/2000/svg">

 <g>
  <title>background</title>
  <rect fill="none" id="canvas_background" height="402" width="582" y="-1" x="-1"/>
 </g>
 <g>
  <title>Layer 1</title>
  <path fill="#b4dbc0" id="svg_2" d="m437.032,74.982c-46.344,-46.341 -110.39,-74.982 -180.962,-74.982c-70.712,0 -134.766,28.641 -181.103,74.982c-46.202,46.357 -74.967,110.425 -74.967,181.015c0,70.737 28.765,134.663 74.967,181.02c46.337,46.346 110.391,74.983 181.103,74.983c70.571,0 134.618,-28.637 180.962,-74.983c46.198,-46.357 74.968,-110.283 74.968,-181.02c0,-70.59 -28.77,-134.658 -74.968,-181.015z"/>
  <path stroke="null" id="svg_3" fill-rule="evenodd" fill="#67839b" d="m289.11352,115.31428c-8.97355,-1.147568 -20.422944,-5.001605 -22.441002,7.023054c-2.242991,12.476004 10.544911,11.578116 18.851583,13.388297c56.572172,12.484007 75.875204,32.887355 85.303371,88.261928c0.438777,2.271129 0.676382,5.212873 0.676382,7.708074c0.67163,6.576511 2.241407,12.468002 12.114688,10.665823c4.942184,-0.68662 6.736894,-3.401092 6.961827,-7.255129c0.674798,-3.410695 0,-7.951352 0.45145,-11.118769c0.223349,-53.330717 -45.795992,-101.650225 -101.918299,-108.673279l0,0zm5.170285,43.780452c-5.837163,0 -11.677495,0.678618 -13.918902,7.037459c-3.370823,9.074913 3.594172,11.563711 10.544911,12.695275c23.125305,3.410695 35.249497,17.026265 37.717421,39.707144c0.223349,3.175419 1.351181,5.673821 2.692857,7.72568c2.022811,2.245521 4.489151,3.167417 7.631873,2.941744c2.018059,0 3.58942,-0.696223 4.931096,-1.366839c3.827025,-2.949747 4.493903,-8.394694 4.047206,-14.068515c0.448281,-25.622624 -28.734367,-55.358568 -53.646462,-54.671947l0,0zm117.170957,179.676869c-11.444642,-9.082915 -24.020284,-17.243935 -35.689859,-25.640229c-24.015532,-16.339644 -46.014589,-17.680875 -63.747844,8.84764c-10.101382,14.980808 -24.249969,15.659426 -38.835749,9.073312c-40.630459,-17.920952 -71.832751,-45.824308 -90.236052,-86.888688c-2.699193,-6.350838 -4.489151,-12.468002 -4.718836,-18.140222c-0.674798,-10.893096 3.814353,-20.411351 15.941713,-28.815649c10.098213,-6.576511 19.971494,-14.51986 19.301448,-29.266993c-0.894979,-19.279788 -48.042152,-83.485995 -66.887398,-90.525055c-7.639794,-2.724074 -15.271667,-2.263126 -23.126889,0c-43.773181,14.73753 -61.729785,50.147295 -44.44798,92.107963c9.876449,23.604376 20.42928,45.606638 32.998586,66.245262c53.651214,90.750727 132.661221,157.002391 234.577935,200.329897c6.957075,2.949747 14.815465,4.314985 19.076515,5.220876c28.511019,0.451345 61.726617,-26.997465 71.382885,-53.77726c9.429751,-26.081971 -10.318394,-36.059574 -25.588477,-48.770853l0,0zm-140.288342,-248.409329c91.349627,14.05091 133.328099,57.152744 144.996089,148.138746c0,0.912293 0,1.592511 0,2.255124c0.681134,8.394694 -0.887059,19.295793 10.106134,19.295793c9.659436,0.227273 10.106134,-7.031057 10.106134,-14.068515c-0.446697,-2.488799 -0.446697,-4.532655 -0.446697,-6.568508c1.118328,-85.998802 -74.527192,-165.842028 -162.070386,-168.574105c-6.960243,1.131563 -20.430864,-4.540657 -21.547608,10.206476c-0.231269,9.767935 11.216541,8.393094 18.856335,9.31499l0,0z" clip-rule="evenodd"/>
 </g>
</svg>