<svg width="136" height="135.099" xmlns="http://www.w3.org/2000/svg">

 <g>
  <title>background</title>
  <rect fill="none" id="canvas_background" height="402" width="582" y="-1" x="-1"/>
 </g>
 <g>
  <title>Layer 1</title>
  <path id="svg_2" fill="#b4dbc0" d="m4.667,67.549c0,-34.98 28.355,-63.334 63.332,-63.334c34.979,0 63.334,28.354 63.334,63.334c0,34.976 -28.355,63.333 -63.334,63.333c-34.977,0 -63.332,-28.357 -63.332,-63.333z"/>
  <path stroke="null" id="Facebook_Places_3_" fill="#67839b" d="m100.211935,43.30322c-0.348717,-1.288544 -1.058085,-2.660557 -1.581824,-3.86172c-6.282216,-14.846949 -20.005503,-20.168063 -31.086228,-20.168063c-14.834409,0 -31.173739,9.781458 -33.35488,29.952129l0,4.11995c0,0.170849 0.059666,1.715016 0.147177,2.488403c1.2225,9.611913 8.931407,19.826364 14.689884,29.436973c6.194705,10.297919 12.624098,20.426293 18.993825,30.554667c3.926053,-6.607049 7.838848,-13.301479 11.67739,-19.741591c1.046152,-1.887169 2.260696,-3.775643 3.308174,-5.576735c0.696109,-1.201163 2.029986,-2.40363 2.63991,-3.518717c6.194705,-11.156079 16.165634,-22.400844 16.165634,-33.47215l0,-4.54903c-0.001326,-1.199859 -1.51155,-5.405886 -1.599061,-5.664116zm-32.397564,20.68322c-4.360956,0 -9.132947,-2.1454 -11.489109,-8.067747c-0.351369,-0.942933 -0.323525,-2.831406 -0.323525,-3.004864l0,-2.661861c0,-7.549982 6.519556,-10.983926 12.189196,-10.983926c6.980976,0 12.378803,5.491963 12.378803,12.358546c0,6.869192 -5.775714,12.359851 -12.755364,12.359851z"/>
 </g>
</svg>